<svg xmlns="http://www.w3.org/2000/svg" version="1.1" xmlns:xlink="http://www.w3.org/1999/xlink" viewBox="0 0 200 200"><rect width="200" height="200" fill="url('#gradient')"></rect><defs><linearGradient id="gradient" gradientTransform="rotate(128 0.5 0.5)"><stop offset="0%" stop-color="#fead82"></stop><stop offset="100%" stop-color="#8fa983"></stop></linearGradient></defs><g><g fill="#445272" transform="matrix(1.7289184879467216,0,0,1.7289184879467216,8.142676883640178,112.29686835912231)" stroke="#c8512e" stroke-width="0.75"><path d="M4.50-14.22L4.50-2.64L10.47-2.64L10.47 0L1.07 0L1.07-14.22L4.50-14.22ZM16.88 0.20L16.88 0.20Q14.44 0.20 12.94-1.25Q11.44-2.71 11.44-5.03L11.44-5.03L11.44-5.30Q11.44-6.92 12.04-8.16Q12.64-9.40 13.79-10.08Q14.94-10.76 16.52-10.76L16.52-10.76Q18.75-10.76 20.04-9.38Q21.33-8.00 21.33-5.53L21.33-5.53L21.33-4.25L14.79-4.25Q14.96-3.36 15.56-2.85Q16.15-2.34 17.10-2.34L17.10-2.34Q18.66-2.34 19.54-3.44L19.54-3.44L21.04-1.66Q20.43-0.81 19.30-0.31Q18.17 0.20 16.88 0.20ZM16.50-8.22L16.50-8.22Q15.06-8.22 14.79-6.31L14.79-6.31L18.11-6.31L18.11-6.56Q18.13-7.35 17.71-7.79Q17.29-8.22 16.50-8.22ZM39.42-7.60L39.42-1.76Q38.63-0.88 37.11-0.34Q35.59 0.20 33.77 0.20L33.77 0.20Q30.98 0.20 29.31-1.51Q27.64-3.22 27.52-6.27L27.52-6.27L27.51-7.50Q27.51-9.60 28.25-11.17Q28.99-12.73 30.38-13.58Q31.76-14.42 33.57-14.42L33.57-14.42Q36.23-14.42 37.70-13.21Q39.17-11.99 39.41-9.58L39.41-9.58L36.11-9.58Q35.94-10.77 35.35-11.28Q34.77-11.79 33.69-11.79L33.69-11.79Q32.40-11.79 31.70-10.69Q31.00-9.60 30.99-7.57L30.99-7.57L30.99-6.71Q30.99-4.58 31.71-3.51Q32.44-2.44 34.00-2.44L34.00-2.44Q35.34-2.44 36.00-3.04L36.00-3.04L36.00-5.24L33.61-5.24L33.61-7.60L39.42-7.60ZM40.86-4.82L40.85-5.38Q40.85-6.96 41.46-8.20Q42.08-9.43 43.23-10.10Q44.38-10.76 45.94-10.76L45.94-10.76Q48.31-10.76 49.68-9.29Q51.04-7.82 51.04-5.29L51.04-5.29L51.04-5.18Q51.04-2.71 49.67-1.25Q48.30 0.20 45.96 0.20L45.96 0.20Q43.70 0.20 42.33-1.16Q40.97-2.51 40.86-4.82L40.86-4.82ZM44.15-5.77L44.14-5.18Q44.14-3.71 44.60-3.03Q45.06-2.34 45.96-2.34L45.96-2.34Q47.71-2.34 47.75-5.05L47.75-5.05L47.75-5.38Q47.75-8.22 45.94-8.22L45.94-8.22Q44.29-8.22 44.15-5.77L44.15-5.77ZM58.89 0L58.79-1.14Q57.74 0.20 55.97 0.20L55.97 0.20Q54.23 0.20 53.33-0.82Q52.44-1.83 52.44-3.72L52.44-3.72L52.44-10.57L55.73-10.57L55.73-3.70Q55.73-2.34 57.05-2.34L57.05-2.34Q58.18-2.34 58.66-3.15L58.66-3.15L58.66-10.57L61.97-10.57L61.97 0L58.89 0ZM70.22-10.64L70.17-7.59L69.08-7.67Q67.53-7.67 67.09-6.69L67.09-6.69L67.09 0L63.80 0L63.80-10.57L66.88-10.57L66.99-9.21Q67.82-10.76 69.31-10.76L69.31-10.76Q69.83-10.76 70.22-10.64L70.22-10.64ZM71.38-10.57L74.46-10.57L74.57-9.33Q75.69-10.76 77.59-10.76L77.59-10.76Q79.59-10.76 80.29-9.17L80.29-9.17Q81.37-10.76 83.40-10.76L83.40-10.76Q86.61-10.76 86.70-6.88L86.70-6.88L86.70 0L83.40 0L83.40-6.67Q83.40-7.48 83.13-7.85Q82.85-8.22 82.13-8.22L82.13-8.22Q81.15-8.22 80.67-7.35L80.67-7.35L80.68-7.22L80.68 0L77.38 0L77.38-6.65Q77.38-7.48 77.12-7.85Q76.86-8.22 76.11-8.22L76.11-8.22Q75.17-8.22 74.67-7.35L74.67-7.35L74.67 0L71.38 0L71.38-10.57ZM93.69 0.20L93.69 0.20Q91.26 0.20 89.76-1.25Q88.25-2.71 88.25-5.03L88.25-5.03L88.25-5.30Q88.25-6.92 88.85-8.16Q89.45-9.40 90.61-10.08Q91.76-10.76 93.34-10.76L93.34-10.76Q95.57-10.76 96.86-9.38Q98.14-8.00 98.14-5.53L98.14-5.53L98.14-4.25L91.60-4.25Q91.78-3.36 92.37-2.85Q92.97-2.34 93.92-2.34L93.92-2.34Q95.48-2.34 96.36-3.44L96.36-3.44L97.86-1.66Q97.25-0.81 96.12-0.31Q94.99 0.20 93.69 0.20ZM93.32-8.22L93.32-8.22Q91.88-8.22 91.60-6.31L91.60-6.31L94.92-6.31L94.92-6.56Q94.94-7.35 94.52-7.79Q94.10-8.22 93.32-8.22ZM100.01-13.19L103.30-13.19L103.30-10.57L105.04-10.57L105.04-8.28L103.30-8.28L103.30-3.45Q103.30-2.85 103.52-2.62Q103.73-2.38 104.37-2.38L104.37-2.38Q104.85-2.38 105.19-2.44L105.19-2.44L105.19-0.09Q104.30 0.20 103.33 0.20L103.33 0.20Q101.63 0.20 100.82-0.61Q100.01-1.41 100.01-3.04L100.01-3.04L100.01-8.28L98.66-8.28L98.66-10.57L100.01-10.57L100.01-13.19Z"></path></g></g></svg>